# xmcd
#
# Track frame offsets:
#	150
#	15086
#	34699
#	51873
#	69160
#	86437
#	103042
#	120736
#	137179
#	152119
#	170005
#	186259
#	200681
#	216819
#	229173
#	241433
#	258992
#	274914
#	291886
#	307391
#
# Disc length: 4286
#
# Revision: 1
# Processed by: cddbd v1.5.1PL0 Copyright (c) Steve Scherf et al.
# Submitted via: audiograbber 1.83.01
# Normalized: r0:DSETVAR1
#
DISCID=2710bc14
DTITLE=Various Artist - Country Radio - 1999 - 05 - May
DYEAR=1999
DGENRE=Country
TTITLE0=Alabama feat. 'N Sync - God Must Have Spent A Little More Time On You
TTITLE1=Trisha Yearwood - I'll Still Love You More
TTITLE2=Brooks And Dunn - South Of Santa Fe
TTITLE3=Kenny Chesney - You Had Me From Hello
TTITLE4=Chalee Tennison - Someone Else's Turn To Cry
TTITLE5=Diamond Rio - I Know How The River Feels
TTITLE6=The Tractors - I Wouldn't Tell You No Lie
TTITLE7=David Ball - Watching My Baby Not Coming Back
TTITLE8=SheDaisy - Little Goodbyes
TTITLE9=Doug Stone - Make Up In Love
TTITLE10=Sherrie Austin - Never Been Kissed
TTITLE11=The Great Divide - San Isabella
TTITLE12=Bill Engvall - Hollywood Indian Guides
TTITLE13=Gil Grand - I Already Fell (Remix)
TTITLE14=Mandy Barnett - I've Got A Right To Cry
TTITLE15=Paul Brandt - That's The Truth
TTITLE16=T. Graham Brown - Never In A Million Tears
TTITLE17=Chad Brock - Lightning Does The Work
TTITLE18=Jon Randall - Cold Coffee Morning
TTITLE19=Ricochet - Seven Bridges Road
EXTD=
EXTT0=
EXTT1=
EXTT2=
EXTT3=
EXTT4=
EXTT5=
EXTT6=
EXTT7=
EXTT8=
EXTT9=
EXTT10=
EXTT11=
EXTT12=
EXTT13=
EXTT14=
EXTT15=
EXTT16=
EXTT17=
EXTT18=
EXTT19=
PLAYORDER=
